<svg width="160" height="22" viewBox="0 0 160 22" fill="none" xmlns="http://www.w3.org/2000/svg">
<path d="M16.0645 3.25391H9.66602V21H7.05469V3.25391H0.669922V1.09375H16.0645V3.25391ZM21.834 21H19.209V1.09375H21.834V21ZM30.0371 1.09375L36.5449 17.3359L43.0527 1.09375H46.457V21H43.832V13.248L44.0781 4.88086L37.543 21H35.5332L29.0117 4.92188L29.2715 13.248V21H26.6465V1.09375H30.0371ZM62.3438 11.7988H53.7168V18.8535H63.7383V21H51.0918V1.09375H63.6016V3.25391H53.7168V9.65234H62.3438V11.7988Z" fill="white"/>
<path d="M72.8711 12.127C70.6198 11.4798 68.9792 10.6868 67.9492 9.74805C66.9284 8.80013 66.418 7.63346 66.418 6.24805C66.418 4.68034 67.0423 3.38607 68.291 2.36523C69.5488 1.33529 71.1803 0.820312 73.1855 0.820312C74.5527 0.820312 75.7695 1.08464 76.8359 1.61328C77.9115 2.14193 78.7409 2.87109 79.3242 3.80078C79.9167 4.73047 80.2129 5.74674 80.2129 6.84961H77.5742C77.5742 5.64648 77.1914 4.70312 76.4258 4.01953C75.6602 3.32682 74.5801 2.98047 73.1855 2.98047C71.8913 2.98047 70.8796 3.26758 70.1504 3.8418C69.4303 4.4069 69.0703 5.19531 69.0703 6.20703C69.0703 7.01823 69.4121 7.70638 70.0957 8.27148C70.7884 8.82747 71.9596 9.33789 73.6094 9.80273C75.2682 10.2676 76.5625 10.7826 77.4922 11.3477C78.431 11.9036 79.1237 12.5553 79.5703 13.3027C80.026 14.0501 80.2539 14.9297 80.2539 15.9414C80.2539 17.5547 79.625 18.849 78.3672 19.8242C77.1094 20.7904 75.4277 21.2734 73.3223 21.2734C71.9551 21.2734 70.679 21.0137 69.4941 20.4941C68.3092 19.9655 67.3932 19.2454 66.7461 18.334C66.1081 17.4225 65.7891 16.388 65.7891 15.2305H68.4277C68.4277 16.4336 68.8698 17.3861 69.7539 18.0879C70.6471 18.7806 71.8366 19.127 73.3223 19.127C74.7077 19.127 75.7695 18.8444 76.5078 18.2793C77.2461 17.7142 77.6152 16.944 77.6152 15.9688C77.6152 14.9935 77.2734 14.2415 76.5898 13.7129C75.9062 13.1751 74.6667 12.6465 72.8711 12.127ZM97.3848 3.25391H90.9863V21H88.375V3.25391H81.9902V1.09375H97.3848V3.25391ZM114.352 1.09375V14.6289C114.342 16.5065 113.75 18.0423 112.574 19.2363C111.408 20.4303 109.822 21.1003 107.816 21.2461L107.119 21.2734C104.941 21.2734 103.204 20.6855 101.91 19.5098C100.616 18.334 99.9596 16.7161 99.9414 14.6562V1.09375H102.539V14.5742C102.539 16.0143 102.936 17.1354 103.729 17.9375C104.521 18.7305 105.652 19.127 107.119 19.127C108.605 19.127 109.74 18.7305 110.523 17.9375C111.316 17.1445 111.713 16.028 111.713 14.5879V1.09375H114.352ZM118.494 21V1.09375H124.113C125.845 1.09375 127.376 1.47656 128.707 2.24219C130.038 3.00781 131.063 4.09701 131.783 5.50977C132.512 6.92253 132.882 8.54492 132.891 10.377V11.6484C132.891 13.526 132.526 15.1712 131.797 16.584C131.077 17.9967 130.042 19.0814 128.693 19.8379C127.354 20.5944 125.79 20.9818 124.004 21H118.494ZM121.119 3.25391V18.8535H123.881C125.904 18.8535 127.477 18.2246 128.598 16.9668C129.728 15.709 130.293 13.918 130.293 11.5938V10.4316C130.293 8.17122 129.76 6.41667 128.693 5.16797C127.636 3.91016 126.132 3.27214 124.182 3.25391H121.119ZM139.686 21H137.061V1.09375H139.686V21ZM159.811 11.6895C159.811 13.64 159.482 15.3444 158.826 16.8027C158.17 18.252 157.24 19.3594 156.037 20.125C154.834 20.8906 153.43 21.2734 151.826 21.2734C150.258 21.2734 148.868 20.8906 147.656 20.125C146.444 19.3503 145.501 18.252 144.826 16.8301C144.161 15.3991 143.819 13.7448 143.801 11.8672V10.4316C143.801 8.51758 144.133 6.82682 144.799 5.35938C145.464 3.89193 146.403 2.77083 147.615 1.99609C148.837 1.21224 150.231 0.820312 151.799 0.820312C153.394 0.820312 154.798 1.20768 156.01 1.98242C157.231 2.74805 158.17 3.86458 158.826 5.33203C159.482 6.79036 159.811 8.49023 159.811 10.4316V11.6895ZM157.199 10.4043C157.199 8.04362 156.725 6.23438 155.777 4.97656C154.829 3.70964 153.503 3.07617 151.799 3.07617C150.14 3.07617 148.832 3.70964 147.875 4.97656C146.927 6.23438 146.439 7.98438 146.412 10.2266V11.6895C146.412 13.9772 146.891 15.7773 147.848 17.0898C148.814 18.3932 150.14 19.0449 151.826 19.0449C153.521 19.0449 154.834 18.4297 155.764 17.1992C156.693 15.9596 157.172 14.1868 157.199 11.8809V10.4043Z" fill="#FF4748"/>
</svg>
