<svg xmlns="http://www.w3.org/2000/svg">
    <symbol id="logo" viewBox="0 0 160 22">
            <path d="M16.0645 3.25391H9.66602V21H7.05469V3.25391H0.669922V1.09375H16.0645V3.25391ZM21.834 21H19.209V1.09375H21.834V21ZM30.0371 1.09375L36.5449 17.3359L43.0527 1.09375H46.457V21H43.832V13.248L44.0781 4.88086L37.543 21H35.5332L29.0117 4.92188L29.2715 13.248V21H26.6465V1.09375H30.0371ZM62.3438 11.7988H53.7168V18.8535H63.7383V21H51.0918V1.09375H63.6016V3.25391H53.7168V9.65234H62.3438V11.7988Z" fill="white"/>
            <path d="M72.8711 12.127C70.6198 11.4798 68.9792 10.6868 67.9492 9.74805C66.9284 8.80013 66.418 7.63346 66.418 6.24805C66.418 4.68034 67.0423 3.38607 68.291 2.36523C69.5488 1.33529 71.1803 0.820312 73.1855 0.820312C74.5527 0.820312 75.7695 1.08464 76.8359 1.61328C77.9115 2.14193 78.7409 2.87109 79.3242 3.80078C79.9167 4.73047 80.2129 5.74674 80.2129 6.84961H77.5742C77.5742 5.64648 77.1914 4.70312 76.4258 4.01953C75.6602 3.32682 74.5801 2.98047 73.1855 2.98047C71.8913 2.98047 70.8796 3.26758 70.1504 3.8418C69.4303 4.4069 69.0703 5.19531 69.0703 6.20703C69.0703 7.01823 69.4121 7.70638 70.0957 8.27148C70.7884 8.82747 71.9596 9.33789 73.6094 9.80273C75.2682 10.2676 76.5625 10.7826 77.4922 11.3477C78.431 11.9036 79.1237 12.5553 79.5703 13.3027C80.026 14.0501 80.2539 14.9297 80.2539 15.9414C80.2539 17.5547 79.625 18.849 78.3672 19.8242C77.1094 20.7904 75.4277 21.2734 73.3223 21.2734C71.9551 21.2734 70.679 21.0137 69.4941 20.4941C68.3092 19.9655 67.3932 19.2454 66.7461 18.334C66.1081 17.4225 65.7891 16.388 65.7891 15.2305H68.4277C68.4277 16.4336 68.8698 17.3861 69.7539 18.0879C70.6471 18.7806 71.8366 19.127 73.3223 19.127C74.7077 19.127 75.7695 18.8444 76.5078 18.2793C77.2461 17.7142 77.6152 16.944 77.6152 15.9688C77.6152 14.9935 77.2734 14.2415 76.5898 13.7129C75.9062 13.1751 74.6667 12.6465 72.8711 12.127ZM97.3848 3.25391H90.9863V21H88.375V3.25391H81.9902V1.09375H97.3848V3.25391ZM114.352 1.09375V14.6289C114.342 16.5065 113.75 18.0423 112.574 19.2363C111.408 20.4303 109.822 21.1003 107.816 21.2461L107.119 21.2734C104.941 21.2734 103.204 20.6855 101.91 19.5098C100.616 18.334 99.9596 16.7161 99.9414 14.6562V1.09375H102.539V14.5742C102.539 16.0143 102.936 17.1354 103.729 17.9375C104.521 18.7305 105.652 19.127 107.119 19.127C108.605 19.127 109.74 18.7305 110.523 17.9375C111.316 17.1445 111.713 16.028 111.713 14.5879V1.09375H114.352ZM118.494 21V1.09375H124.113C125.845 1.09375 127.376 1.47656 128.707 2.24219C130.038 3.00781 131.063 4.09701 131.783 5.50977C132.512 6.92253 132.882 8.54492 132.891 10.377V11.6484C132.891 13.526 132.526 15.1712 131.797 16.584C131.077 17.9967 130.042 19.0814 128.693 19.8379C127.354 20.5944 125.79 20.9818 124.004 21H118.494ZM121.119 3.25391V18.8535H123.881C125.904 18.8535 127.477 18.2246 128.598 16.9668C129.728 15.709 130.293 13.918 130.293 11.5938V10.4316C130.293 8.17122 129.76 6.41667 128.693 5.16797C127.636 3.91016 126.132 3.27214 124.182 3.25391H121.119ZM139.686 21H137.061V1.09375H139.686V21ZM159.811 11.6895C159.811 13.64 159.482 15.3444 158.826 16.8027C158.17 18.252 157.24 19.3594 156.037 20.125C154.834 20.8906 153.43 21.2734 151.826 21.2734C150.258 21.2734 148.868 20.8906 147.656 20.125C146.444 19.3503 145.501 18.252 144.826 16.8301C144.161 15.3991 143.819 13.7448 143.801 11.8672V10.4316C143.801 8.51758 144.133 6.82682 144.799 5.35938C145.464 3.89193 146.403 2.77083 147.615 1.99609C148.837 1.21224 150.231 0.820312 151.799 0.820312C153.394 0.820312 154.798 1.20768 156.01 1.98242C157.231 2.74805 158.17 3.86458 158.826 5.33203C159.482 6.79036 159.811 8.49023 159.811 10.4316V11.6895ZM157.199 10.4043C157.199 8.04362 156.725 6.23438 155.777 4.97656C154.829 3.70964 153.503 3.07617 151.799 3.07617C150.14 3.07617 148.832 3.70964 147.875 4.97656C146.927 6.23438 146.439 7.98438 146.412 10.2266V11.6895C146.412 13.9772 146.891 15.7773 147.848 17.0898C148.814 18.3932 150.14 19.0449 151.826 19.0449C153.521 19.0449 154.834 18.4297 155.764 17.1992C156.693 15.9596 157.172 14.1868 157.199 11.8809V10.4043Z" fill="#FF4748"/>
    </symbol>
    <symbol id="facebook" viewBox="0 0 32 32">
        <path d="M10 13h3v-2.8c0-1.1.3-2.7 1.1-3.8.8-1.1 1.8-1.8 3.8-1.8 3.2 0 4.4.5 4.4.5l-.7 3.8s-1.4-.3-2.4-.3S17 9 17 10v3h4.6l-.3 4H17v12h-4V17h-3v-4z"/>
    </symbol>
    <symbol id="twitter" viewBox="0 0 32 32">
        <path d="M29 9.3c-.9.4-1.8.7-2.8.8 1-.6 1.8-1.6 2.2-2.7-1 .6-2 1-3.1 1.2-1-1-2.3-1.6-3.7-1.6-2.7 0-4.9 2.2-4.9 4.9 0 .4 0 .8.1 1.1-4.1-.2-7.7-2.2-10.1-5.1-.5.7-.7 1.6-.7 2.5 0 1.7.9 3.2 2.2 4.1-.8 0-1.6-.2-2.2-.6v.1c0 2.4 1.7 4.4 4 4.8-.4.1-.8.2-1.3.2-.3 0-.6 0-.9-.1.6 2 2.4 3.4 4.6 3.4-1.7 1.3-3.8 2.1-6.1 2.1-.4 0-.8 0-1.2-.1 2.2 1.4 4.8 2.2 7.5 2.2 9.1 0 14-7.5 14-14v-.6c.9-.7 1.7-1.6 2.4-2.6"/>
    </symbol>
    <symbol id="vkontakte" viewBox="0 0 32 32">
        <path d="M15.83 25.176h1.63s.45-.09.723-.362c.27-.27.18-.724.18-.724s0-2.17.996-2.533c.994-.362 2.26 2.08 3.708 3.076.995.724 1.81.543 1.81.543l3.618-.09s1.9-.09.995-1.628c-.09-.09-.542-1.086-2.713-3.166-2.262-2.17-1.99-1.81.814-5.428 1.72-2.262 2.353-3.62 2.172-4.16-.18-.544-1.447-.453-1.447-.453h-4.16s-.272 0-.544.09c-.18.09-.36.453-.36.453s-.634 1.72-1.54 3.257c-1.808 3.076-2.532 3.257-2.894 3.076-.724-.452-.543-1.81-.543-2.804 0-2.985.452-4.252-.905-4.614-.452-.09-.814-.18-1.9-.18-1.447 0-2.714 0-3.438.36-.452.272-.814.725-.633.815.27 0 .905.18 1.176.633.452.543.452 1.9.452 1.9s.27 3.528-.543 3.98c-.543.27-1.357-.27-2.985-3.166-.814-1.447-1.447-3.076-1.447-3.076s.09-.27-.18-.452-.634-.27-.634-.27l-3.89.09s-.543 0-.814.27c-.18.27 0 .724 0 .724S5.608 18.483 9.045 22.1c3.166 3.258 6.785 3.077 6.785 3.077z"/>
    </symbol>
    <symbol id="instagram" viewBox="0 0 32 32">
        <path d="M23.4 4H8.6C6.1 4 4 6.1 4 8.6v14.7C4 25.9 6.1 28 8.6 28h14.7c2.6 0 4.6-2.1 4.6-4.6V8.6c.1-2.5-2-4.6-4.5-4.6zm1.3 2.8h.5v4h-4.1V6.7l3.6.1zm-12.1 6.7c.8-1.1 2-1.8 3.4-1.8s2.7.7 3.4 1.8c.5.7.8 1.5.8 2.5 0 2.3-1.9 4.2-4.2 4.2s-4.2-1.9-4.2-4.2c0-.9.3-1.8.8-2.5zm13.1 9.9c0 1.3-1 2.3-2.3 2.3H8.6c-1.3 0-2.3-1-2.3-2.3v-9.8h3.6c-.3.8-.5 1.6-.5 2.5 0 3.6 2.9 6.6 6.6 6.6 3.6 0 6.6-2.9 6.6-6.6 0-.9-.2-1.7-.5-2.5h3.6v9.8z"/>
    </symbol>
    <symbol id="youtube" viewBox="0 0 32 32">
        <path d="M28.54,6.92a3.8,3.8,0,0,0-2.14-1c-1.76-.2-3.54-.3-5.32-.35s-3.55,0-5.33,0-3.55,0-5.33,0S6.87,5.76,5.11,6A3.79,3.79,0,0,0,3,6.92,4,4,0,0,0,1.78,9a20.08,20.08,0,0,0-.44,3.38c-.06,1.15-.07,2.29-.07,3.39s0,2.24.06,3.39a19.91,19.91,0,0,0,.44,3.38A4,4,0,0,0,3,24.57a3.79,3.79,0,0,0,2.13,1c1.76.2,3.54.3,5.32.35s3.55,0,5.33,0,3.55,0,5.33,0,3.56-.15,5.32-.35a3.79,3.79,0,0,0,2.13-1,4,4,0,0,0,1.2-2.05,20.05,20.05,0,0,0,.44-3.38c.06-1.13.06-2.28.06-3.39h0v-.06h0A30.38,30.38,0,0,0,29.74,9a4,4,0,0,0-1.2-2.05Z"/>
        <path d="M21.25,15.2l-4.93-2.57L12.24,10.5l-.45-.24V20.65l.45-.23,4.51-2.33,4.51-2.34.52-.27Z" fill="#2d2d44"/>
    </symbol>
    <symbol id="skype" viewBox="0 0 32 32">
        <path d="M27.35 17.673c.1-.5.1-1 .1-1.5 0-6.1-4.9-11-11-11-.6 0-1.2 0-1.8.1-1-.7-2.3-1.1-3.6-1.1-3.6 0-6.6 3-6.6 6.6 0 1.3.4 2.6 1.1 3.6-.1.6-.1 1.1-.1 1.7 0 6.1 4.9 11 11 11 .7 0 1.4-.1 2-.2 1 .6 2.2 1 3.5 1 3.6 0 6.6-3 6.6-6.6 0-1.3-.4-2.6-1.2-3.6zm-9.8 6.6c-3.5.2-5.1-.6-6.6-2-1.7-1.6-1-3.4.4-3.5 1.4-.1 2.2 1.6 2.9 2 .7.5 3.5 1.5 4.9-.2 1.6-1.8-1.1-2.8-3-3.1-2.8-.4-6.3-1.9-6-4.9.3-3 2.5-4.5 4.9-4.7 3-.3 4.9.5 6.5 1.8 1.8 1.5.8 3.2-.3 3.4-1.1.1-2.4-2.5-4.9-2.6-2.6 0-4.3 2.7-1.1 3.5 3.2.8 6.6 1.1 7.8 4 1.1 3-2 6.1-5.5 6.3z"/>
    </symbol>
    <symbol id="slack" viewBox="0 0 32 32">
        <path d="M 30.179 20.29 L 26.949 21.367 L 28.066 24.707 C 28.504 26.06 27.788 27.532 26.432 27.969 C 24.904 28.4 23.579 27.542 23.161 26.34 L 22.045 22.996 L 15.387 25.224 L 16.503 28.566 C 17.022 30.164 15.926 31.943 14.071 31.943 C 12.903 31.943 11.944 31.194 11.601 30.197 L 10.482 26.856 L 7.254 27.93 C 5.746 28.366 4.405 27.509 3.982 26.298 C 3.546 24.946 4.262 23.473 5.618 23.036 L 8.848 21.961 L 6.694 15.556 L 3.465 16.629 C 1.665 17.139 0.067 15.846 0.067 14.186 C 0.067 13.102 0.743 12.085 1.83 11.735 L 5.061 10.66 L 3.943 7.32 C 3.504 5.965 4.223 4.493 5.579 4.055 C 6.934 3.618 8.408 4.333 8.848 5.687 L 9.966 9.028 L 16.621 6.801 L 15.507 3.458 C 14.971 1.813 16.15 0.067 17.955 0.067 C 19.042 0.067 20.059 0.743 20.412 1.829 L 21.529 5.171 L 24.758 4.096 C 26.112 3.657 27.588 4.375 28.026 5.728 C 28.467 7.08 27.747 8.552 26.392 8.989 L 23.161 10.064 L 25.315 16.469 L 28.547 15.395 C 30.196 14.862 31.943 16.038 31.943 17.837 C 31.943 18.924 31.265 19.939 30.179 20.29 M 18.236 11.752 L 11.582 13.977 L 13.732 20.389 L 20.388 18.166 L 18.236 11.752 Z"/>
    </symbol>
    <symbol id="github" viewBox="0 0 32 32">
        <path d="M16 3.987c-6.904 0-12.5 5.596-12.5 12.5 0 5.523 3.58 10.208 8.548 11.86.626.116.854-.27.854-.602 0-.296-.01-1.083-.017-2.125-3.477.755-4.21-1.676-4.21-1.676-.57-1.444-1.39-1.828-1.39-1.828-1.134-.776.087-.76.087-.76 1.255.088 1.915 1.288 1.915 1.288 1.115 1.91 2.926 1.358 3.638 1.04.113-.81.436-1.36.793-1.673-2.775-.313-5.694-1.386-5.694-6.176 0-1.364.488-2.48 1.287-3.354-.127-.317-.556-1.588.124-3.31 0 0 1.05-.335 3.438 1.283a11.964 11.964 0 0 1 3.13-.42c1.062.004 2.13.143 3.13.42 2.386-1.618 3.434-1.282 3.434-1.282.682 1.723.253 2.994.124 3.31.8.874 1.285 1.99 1.285 3.354 0 4.803-2.923 5.86-5.707 6.168.45.387.848 1.15.848 2.317 0 1.67-.015 3.017-.015 3.427 0 .335.225.724.86.602 4.963-1.658 8.54-6.34 8.54-11.86 0-6.905-5.596-12.5-12.5-12.5"/>
    </symbol>
    <symbol id="telegram" viewBox="0 0 32 32">
        <path d="M 24.964 30.003 C 24.727 30.003 24.492 29.934 24.291 29.798 L 16.664 24.624 L 12.574 27.567 C 11.89 28.058 10.926 27.713 10.711 26.898 L 8.658 19.117 L 1.319 16.309 C 0.456 15.979 0.275 14.837 0.992 14.256 C 1.086 14.179 1.192 14.117 1.304 14.074 L 29.207 2.969 C 30.058 2.609 30.981 3.305 30.869 4.223 C 30.864 4.253 30.859 4.285 30.853 4.316 L 26.144 29.028 C 26.035 29.594 25.541 30.003 24.964 30.003 Z M 17.333 22.176 L 24.128 26.785 L 27.791 7.555 L 14.555 20.291 L 17.301 22.155 C 17.313 22.162 17.323 22.169 17.333 22.176 Z M 11.678 21.152 L 12.589 24.598 L 14.548 23.188 L 11.981 21.447 C 11.864 21.368 11.761 21.267 11.678 21.152 Z M 5.052 15.165 L 10.09 17.093 C 10.451 17.231 10.723 17.534 10.822 17.908 L 11.461 20.33 C 11.491 20.048 11.62 19.786 11.823 19.589 L 24.435 7.453 L 5.052 15.165 Z"/>
    </symbol>
    <symbol id="clock" viewBox="0 0 16 16">
            <path fill-rule="evenodd" clip-rule="evenodd" d="M8 2.92969C8.27614 2.92969 8.5 3.15355 8.5 3.42969V7.83977L10.9069 11.2094C11.0674 11.4341 11.0153 11.7464 10.7906 11.9069C10.5659 12.0674 10.2536 12.0153 10.0931 11.7906L7.5 8.16023V3.42969C7.5 3.15355 7.72386 2.92969 8 2.92969Z" fill="white"/>
            <path fill-rule="evenodd" clip-rule="evenodd" d="M7.9375 14.5C11.5274 14.5 14.4375 11.5899 14.4375 8C14.4375 4.41015 11.5274 1.5 7.9375 1.5C4.34765 1.5 1.4375 4.41015 1.4375 8C1.4375 11.5899 4.34765 14.5 7.9375 14.5ZM7.9375 15.5C12.0796 15.5 15.4375 12.1421 15.4375 8C15.4375 3.85786 12.0796 0.5 7.9375 0.5C3.79536 0.5 0.4375 3.85786 0.4375 8C0.4375 12.1421 3.79536 15.5 7.9375 15.5Z" fill="white"/>
    </symbol>
</svg>
